<?xml version="1.0" encoding="utf-8"?>
<!-- Generator: Adobe Illustrator 17.0.2, SVG Export Plug-In . SVG Version: 6.00 Build 0)  -->
<!DOCTYPE svg PUBLIC "-//W3C//DTD SVG 1.1//EN" "http://www.w3.org/Graphics/SVG/1.1/DTD/svg11.dtd">
<svg version="1.1" id="Layer_1" xmlns="http://www.w3.org/2000/svg" xmlns:xlink="http://www.w3.org/1999/xlink" x="0px" y="0px"
	 width="615.652px" height="486.684px" viewBox="0 0 615.652 486.684" enable-background="new 0 0 615.652 486.684"
	 xml:space="preserve">
<path fill="none" stroke="#000000" stroke-miterlimit="10" d="M79.008,305.587"/>
<path d="M89.088,141.29c0,0,6.833,13.667,4.333,22c0,0,5.167-4,5-8c0,0,11,12.667,9,21.667c0,0,4.167-4.167,3.667-8.667
	c0,0,6.5,13.167,4.333,20.5c0,0,4.833-5.5,4.333-9c0,0,5.5,11.667,2.5,18.667c0,0,3.833-4.333,4.167-7.833
	c0,0-2.5,13.5-1.333,20.333c0,0,1-4.333,4.167-6.667c0,0,3.667,11.833,0.167,21.833c0,0,3.833-2.333,4.833-6.667
	c0,0-3.667,14.167-1.667,22.667c0,0,2.333-8.167,4.833-9.167c0,0,4.333,14.333,0.167,22.333c0,0,5.667-4.833,6.667-9.667
	c0,0,3.167,14.5,1,21.5c0,0,5.167-6,5-10c0,0,6,17,3.333,23.667c0,0,4.667-1.5,6.5-7.667l22.75,59.25c0,0,4.25,43.5-6.5,60
	c0,0-18.375-5.625-20.875,6.5c0,0-2.75,10,4.875,12.625c0,0,6.625,3.5,10.625,0.125c0,0,22.375,8.292,27.125-14.167
	c0,0,0,19.833-4,26.167c0,0-23.5,0-23.667,10.333c0,0-6.667,14.167,9.333,13.667c0,0,11.667,3.167,17.5-0.167
	c0,0,13.949,2.528,20.5-25c3.708-15.583,4.833-20.458,4.833-20.458s3.625,0.75,3.5-5.375s-12.25-109.917-9.5-118.333
	c0,0,5.667,9.5,16.333,12.5c0,0-2.833-3.167-0.5-7.667c0,0,6.5,6.333,22.333,4.833c0,0-2.333-0.833-5.667-5.333
	c0,0,14,2.5,22.667,0.833c0,0-3-0.5-7.833-4c0,0,16.833,2.333,25.833,0.833c0,0-3.167-1-5-5c0,0,11.333,3.5,23.5,0.833
	c0,0-2.667-0.667-5.833-3.833c0,0,13.5-3.167,18.167,0.167c0,0,0.167-2.833-2.167-4.5c0,0,12.833-3.167,17.5,0.667
	c0,0,0.333-3.5-2.167-5c0,0,46.083-27.5,59.333,8s29.498,71.871,61.667,94.5c12.083,8.5-17.167,40.167-17.167,40.167
	c-15.833-2.833-19.667,2-19.667,2c-16.833,15.5,2.333,16.833,2.333,16.833c9,5.5,16.333,0.667,16.333,0.667
	c15.167,4.333,19.833-10.167,19.833-10.167c17.833-12.833,22.333-27.5,22.333-27.5c29.167,34-0.333,70.833-0.333,70.833
	c-15.833,0-17.5,4-17.5,4c-12.833,10.5-5,15.833-5,15.833c1.333,8.333,14.667,5.667,14.667,5.667
	c23.167,9.833,29.25-16.083,29.25-16.083c17.25-30.5,34.75-74.75,16.5-89.75s-26.917-55.333-26.917-55.333
	c1.167,2.667,4.667,3.167,4.667,3.167c-3.167-3.333,0.333-20,0.333-20c0.5,2.5,4.833,4.333,4.833,4.333
	c-4.333-6-0.167-22.667-0.167-22.667c0.333,2,3.167,4,3.167,4c-1.833-4.5,2.583-13.25,2.583-13.25s4.875,10.5,2.625,21.125
	c0,0,3.75-3.375,4-8.25c0,0-1.5,15.875,1.75,24.875c0,0-0.75-4.125,2.5-8.75c0,0,3.25,12.75,0.875,22.625c0,0,2.375-0.75,4.25-6.875
	c0,0-1.75,10.625,1.5,20.25c0,0,0.25-3.375,2.5-6.875c0,0,5.25,9.625,3.5,19.375c0,0,4-2.625,4.5-6.125c0,0,1.5,13.875,8.25,21.375
	c0,0-1-4.125,0.625-7.25c0,0,2.5,11.625,12.25,18.5c0,0-2-2.375-1.25-6.375c0,0,8,10.75,17.625,12.625c0,0-3.125-2.25-2.875-6.125
	c0,0,7.875,7.75,19.25,8.875c0,0-3.5-1.75-5.25-5.75c0,0,13.625,1.875,16.625,6.875c0,0,0.25-3.625-2.875-6.5c0,0,9.75,3.25,12,9
	c0,0,0.375-7-1.875-9.375c0,0,5.917,1.833,8.083,8.667c0,0,12-27.333-19.667-34.333c-31.667-7-34.333-45.333-44-87.667
	c-9.667-42.333-0.667-46.667-14.667-81c-22.017-53.993-157.667-77.667-238.667-74.333s-105.667-17.5-112.333-20.167
	c-6.667-2.667-12.667-2.333-12.667-2.333c1.833-1.167,3.5-3.667,3.5-3.667c-6.833,1.667-19.667-4.833-19.667-4.833
	c2.667,0.333,5.5-1.667,5.5-1.667c-5.5-1.667-13.833-11.167-13.833-11.167c3.167,0.5,5.667-2.333,5.667-2.333
	c-9.667-1.5-15.833-11-15.833-11c2.667,0.5,4.333-2.167,4.333-2.167c-6.5-1.667-10.667-8.667-10.667-8.667
	s4.667-46.667-13.333-49.333S88.421,38.79,88.421,38.79S41.338,63.874,43.838,79.374c0,0-3,15.75-13,24s-39.25,30.25-28.5,35
	s24.583,13.917,40.25,6.083c0,0-17.5,17.667-3.167,29.333c0,0,4.667,4,5.833-8.667c0,0,8,6.5,21.667-6.333
	C80.588,145.957,83.588,140.624,89.088,141.29z"/>
</svg>
